<svg width="520" height="132" viewBox="0 0 520 132" fill="none" xmlns="http://www.w3.org/2000/svg">
  <defs>
    <linearGradient id="secretAccent" x1="88" y1="52" x2="142" y2="82" gradientUnits="userSpaceOnUse">
      <stop stop-color="#B84CFF"/>
      <stop offset="1" stop-color="#8D4DFF"/>
    </linearGradient>
  </defs>
  <g transform="translate(8 14)">
    <path d="M74 18H35C23.4 18 16 24.5 16 33.7C16 42.4 22.6 47.7 32.7 49.3L56.1 52.9C60.8 53.6 63.1 55.9 63.1 59.4C63.1 63.8 59.8 66 54.3 66H16" stroke="#fff" stroke-width="9" stroke-linecap="square" stroke-linejoin="miter"/>
    <path d="M26 80H65C76.6 80 84 73.5 84 64.3C84 55.6 77.4 50.3 67.3 48.7L43.9 45.1C39.2 44.4 36.9 42.1 36.9 38.6C36.9 34.2 40.2 32 45.7 32H84" stroke="#fff" stroke-width="9" stroke-linecap="square" stroke-linejoin="miter"/>
    <path d="M39 50.5L64 54.3" stroke="url(#secretAccent)" stroke-width="9"/>
  </g>
  <path d="M118 24V108" stroke="#FFFFFF" stroke-opacity="0.45"/>
  <text x="145" y="68" fill="#FFFFFF" font-family="Montserrat, Arial, sans-serif" font-size="42" font-weight="500" letter-spacing="10">SECRET</text>
  <text x="148" y="94" fill="#FFFFFF" fill-opacity="0.72" font-family="Montserrat, Arial, sans-serif" font-size="9" font-weight="500" letter-spacing="5.5">SUA COMUNIDADE EXCLUSIVA</text>
</svg>
